<svg id="visual" viewBox="0 0 900 600" width="900" height="600" xmlns="http://www.w3.org/2000/svg" xmlns:xlink="http://www.w3.org/1999/xlink" version="1.1"><rect x="0" y="0" width="900" height="600" fill="#ffd89e"></rect><path d="M0 481L30 492C60 503 120 525 180 538.2C240 551.3 300 555.7 360 555.2C420 554.7 480 549.3 540 527.8C600 506.3 660 468.7 720 457.5C780 446.3 840 461.7 870 469.3L900 477L900 601L870 601C840 601 780 601 720 601C660 601 600 601 540 601C480 601 420 601 360 601C300 601 240 601 180 601C120 601 60 601 30 601L0 601Z" fill="#ff8746"></path><path d="M0 515L30 521.2C60 527.3 120 539.7 180 538C240 536.3 300 520.7 360 526.2C420 531.7 480 558.3 540 556.7C600 555 660 525 720 523C780 521 840 547 870 560L900 573L900 601L870 601C840 601 780 601 720 601C660 601 600 601 540 601C480 601 420 601 360 601C300 601 240 601 180 601C120 601 60 601 30 601L0 601Z" fill="#fdcb4e"></path></svg>